<?xml version="1.0" encoding="UTF-8" standalone="no"?>
<svg
   xmlns:dc="http://purl.org/dc/elements/1.1/"
   xmlns:cc="http://creativecommons.org/ns#"
   xmlns:rdf="http://www.w3.org/1999/02/22-rdf-syntax-ns#"
   xmlns:svg="http://www.w3.org/2000/svg"
   xmlns="http://www.w3.org/2000/svg"
   xmlns:sodipodi="http://sodipodi.sourceforge.net/DTD/sodipodi-0.dtd"
   xmlns:inkscape="http://www.inkscape.org/namespaces/inkscape"
   sodipodi:docname="favicon.svg"
   inkscape:version="1.0 (4035a4fb49, 2020-05-01)"
   id="svg1080"
   version="1.1"
   viewBox="0 0 3.96875 3.96875"
   height="3.96875mm"
   width="3.96875mm">
  <defs
     id="defs1074" />
  <sodipodi:namedview
     inkscape:window-maximized="0"
     inkscape:window-y="238"
     inkscape:window-x="2428"
     inkscape:window-height="1161"
     inkscape:window-width="1446"
     fit-margin-bottom="0"
     fit-margin-right="0"
     fit-margin-left="0"
     fit-margin-top="0"
     showgrid="true"
     inkscape:document-rotation="0"
     inkscape:current-layer="layer1"
     inkscape:document-units="mm"
     inkscape:cy="11.618355"
     inkscape:cx="-3.2227586"
     inkscape:zoom="22.627417"
     inkscape:pageshadow="2"
     inkscape:pageopacity="0.0"
     borderopacity="1.0"
     bordercolor="#666666"
     pagecolor="#ffffff"
     id="base">
    <inkscape:grid
       originy="-75.406245"
       originx="-64.822917"
       id="grid1643"
       type="xygrid" />
  </sodipodi:namedview>
  <metadata
     id="metadata1077">
    <rdf:RDF>
      <cc:Work
         rdf:about="">
        <dc:format>image/svg+xml</dc:format>
        <dc:type
           rdf:resource="http://purl.org/dc/dcmitype/StillImage" />
        <dc:title></dc:title>
      </cc:Work>
    </rdf:RDF>
  </metadata>
  <g
     transform="translate(-64.822917,-75.406245)"
     id="layer1"
     inkscape:groupmode="layer"
     inkscape:label="Layer 1">
    <path
       id="path2182"
       d="m 67.468751,75.406245 h -1.322917 v 0.264583 h -0.529167 v 0.264584 h -0.264583 v 0.264583 h -0.264583 v 0.529167 h -0.264584 v 1.322911 h 0.264584 v 0.529172 h 0.264583 v 0.264583 h 0.264583 v 0.264584 h 0.529167 v 0.264583 h 1.322917 v -0.264581 h 0.529166 v -0.264578 h 0.264584 v -0.264591 h 0.264583 v -0.264583 h 0.264583 V 77.7875 h -0.79375 v -0.264588 h -0.79375 v -0.264584 h 0.79375 v -0.264583 h 0.79375 v -0.529167 h -0.264583 v -0.264583 h -0.264583 v -0.264583 h -0.264584 v -0.264584 h -0.529166 z"
       style="fill:#000000;fill-opacity:1;stroke:none;stroke-width:0.264583px;stroke-linecap:butt;stroke-linejoin:miter;stroke-opacity:1" />
    <path
       style="fill:#ffdc00;fill-opacity:1;stroke:none;stroke-width:0.264583px;stroke-linecap:butt;stroke-linejoin:miter;stroke-opacity:1"
       d="m 66.410416,75.670833 v 0.264584 H 65.88125 V 76.2 h -0.264584 v 0.264583 H 65.352083 V 76.99375 H 65.0875 v 0.79375 h 0.264583 v 0.529167 h 0.264583 v 0.264582 h 0.264584 v 0.264584 h 0.529166 v 0.264584 h 0.79375 v -0.264584 h 0.529167 v -0.264584 h 0.264583 V 78.316667 H 68.2625 V 78.052083 H 67.733333 V 77.7875 h -0.79375 v -0.264583 h -0.529167 v -0.264584 h 0.529167 V 76.99375 h 0.79375 V 76.729167 H 68.2625 V 76.464583 H 67.997916 V 76.2 h -0.264583 v -0.264583 h -0.529167 v -0.264584 z"
       id="path2162" />
    <rect
       y="76.199997"
       x="66.939583"
       height="0.5291692"
       width="0.26458469"
       id="rect1659-4-07-3-3-2-5-6-2-6"
       style="opacity:0.64;fill:#000000;fill-opacity:1;stroke:none;stroke-width:0.0316227;stroke-linecap:round;stroke-linejoin:round;stroke-miterlimit:4;stroke-dasharray:none;stroke-opacity:0.437262" />
    <rect
       style="opacity:0.64;fill:#ffffff;fill-opacity:1;stroke:none;stroke-width:0.0316227;stroke-linecap:round;stroke-linejoin:round;stroke-miterlimit:4;stroke-dasharray:none;stroke-opacity:0.437262"
       id="rect1659-4-07-3-3-2-5-6-2-7-1"
       width="0.26458469"
       height="0.5291692"
       x="67.204163"
       y="76.199997" />
  </g>
</svg>
